{"title":"Mr &amp; Mrs Smith(1941)MP-4[DaScubaDude]","uid":13022965,"size":938265884,"categoryP":"video","categoryS":"movies","magnet":"?xt=urn:btih:d001ffe0559f7c13ff4a4dd843fd94a35e580f8f&amp;dn=Mr+%26amp%3B+Mrs+Smith%281941%29MP-4%5BDaScubaDude%5D&amp;tr=udp%3A%2F%2Ftracker.leechers-paradise.org%3A6969&amp;tr=udp%3A%2F%2Fzer0day.ch%3A1337&amp;tr=udp%3A%2F%2Fopen.demonii.com%3A1337&amp;tr=udp%3A%2F%2Ftracker.coppersurfer.tk%3A6969&amp;tr=udp%3A%2F%2Fexodus.desync.com%3A6969","seeders":0,"leechers":1,"uploader":"dascuba","files":1,"time":1450374775,"description":"Not a typical Hitchcock movie, this is a comedy about a couple who learn that their marriage was not valid.\r\nDirector: Alfred Hitchcock\r\nWriter: Norman Krasna (story)\r\nStars: Carole Lombard, Robert Montgomery, Gene Raymond\r\n\r\n\r\nGeneral\r\nComplete name                            :Mr&amp;Mrs Smith(1941)MR_AND_MRS_SMITH_Title1_1.mp4\r\nFormat                                   : MPEG-4\r\nFormat profile                           : Base Media\r\nCodec ID                                 : isom\r\nFile size                                : 895 MiB\r\nDuration                                 : 1h 34mn\r\nOverall bit rate mode                    : Variable\r\nOverall bit rate                         : 1 319 Kbps\r\nMovie name                               : MR_AND_MRS_SMITH\r\nGenre                                    : Comedy\r\nWriting application                      : Lavf54.6.100\r\n\r\nVideo\r\nID                                       : 1\r\nFormat                                   : AVC\r\nFormat/Info                              : Advanced Video Codec\r\nFormat profile                           :   \r\nFormat settings, CABAC                   : No\r\nFormat settings, ReFrames                : 6 frames\r\nCodec ID                                 : avc1\r\nCodec ID/Info                            : Advanced Video Coding\r\nDuration                                 : 1h 34mn\r\nBit rate                                 : 1 201 Kbps\r\nWidth                                    : 720 pixels\r\nHeight                                   : 540 pixels\r\nDisplay aspect ratio                     : 4:3\r\nFrame rate mode                          : Constant\r\nFrame rate                               : 29.970 fps\r\nColor space                              : YUV\r\nChroma subsampling                       : 4:2:0\r\nBit depth                                : 8 bits\r\nScan type                                : Progressive\r\nBits/(Pixel*Frame)                       : 0.103\r\nStream size                              : 815 MiB (91%)\r\n\r\nAudio\r\nID                                       : 2\r\nFormat                                   : AAC\r\nFormat/Info                              : Advanced Audio Codec\r\nFormat profile                           : LC\r\nCodec ID                                 : 40\r\nDuration                                 : 1h 34mn\r\nBit rate mode                            : Variable\r\nBit rate                                 : 111 Kbps\r\nMaximum bit rate                         : 128 Kbps\r\nChannel(s)                               : 2 channels\r\nChannel(s)_Original                      : 1 channel\r\nChannel positions                        : Front: C\r\nSampling rate                            : 44.1 KHz\r\nCompression mode                         : Lossy\r\nStream size                              : 75.3 MiB (8%)","torrent":{"xt":"urn:btih:d001ffe0559f7c13ff4a4dd843fd94a35e580f8f","amp;dn":"Mr+%26amp%3B+Mrs+Smith%281941%29MP-4%5BDaScubaDude%5D","amp;tr":["udp%3A%2F%2Ftracker.leechers-paradise.org%3A6969","udp%3A%2F%2Fzer0day.ch%3A1337","udp%3A%2F%2Fopen.demonii.com%3A1337","udp%3A%2F%2Ftracker.coppersurfer.tk%3A6969","udp%3A%2F%2Fexodus.desync.com%3A6969"],"infoHash":"d001ffe0559f7c13ff4a4dd843fd94a35e580f8f","infoHashBuffer":{"type":"Buffer","data":[208,1,255,224,85,159,124,19,255,74,77,216,67,253,148,163,94,88,15,143]},"announce":[],"urlList":[]}}